<svg id="Lag_1" data-name="Lag 1" xmlns="http://www.w3.org/2000/svg" viewBox="0 0 1922 1082"><defs><style>.cls-1,.cls-3{fill:#142740;}.cls-1,.cls-5,.cls-6,.cls-7{stroke:#000;stroke-miterlimit:10;}.cls-2,.cls-5{fill:#d9b07e;}.cls-4{fill:#fff;}.cls-6{fill:#463578;}.cls-7{fill:#4820bc;}</style></defs><rect class="cls-1" x="0.5" y="0.5" width="1921" height="1081"/><rect class="cls-2" x="1405.67" y="984.24" width="226.49" height="47.47" rx="23.28"/><path d="M1607.88,986.74a22.81,22.81,0,0,1,22.79,22.78v.9a22.81,22.81,0,0,1-22.79,22.79H1428a22.82,22.82,0,0,1-22.79-22.79v-.9A22.82,22.82,0,0,1,1428,986.74h179.92m0-1H1428a23.79,23.79,0,0,0-23.79,23.78v.9a23.79,23.79,0,0,0,23.79,23.79h179.92a23.79,23.79,0,0,0,23.79-23.79v-.9a23.79,23.79,0,0,0-23.79-23.78Z" transform="translate(1 -2)"/><rect class="cls-3" x="1418.58" y="991.75" width="201.16" height="31.69" rx="15.54"/><path d="M1603.2,994.25a15.06,15.06,0,0,1,15,15v.61a15.05,15.05,0,0,1-15,15H1433.12a15.05,15.05,0,0,1-15-15v-.61a15.06,15.06,0,0,1,15-15H1603.2m0-1H1433.12a16,16,0,0,0-16,16v.61a16,16,0,0,0,16,16H1603.2a16,16,0,0,0,16-16v-.61a16,16,0,0,0-16-16Z" transform="translate(1 -2)"/><rect class="cls-2" x="1428.93" y="943.29" width="180.77" height="40.02" rx="19.63"/><path d="M1589.08,945.79a19.15,19.15,0,0,1,19.12,19.12v.77a19.15,19.15,0,0,1-19.12,19.12H1447.56a19.15,19.15,0,0,1-19.13-19.12v-.77a19.15,19.15,0,0,1,19.13-19.12h141.52m0-1H1447.56a20.12,20.12,0,0,0-20.13,20.12v.77a20.12,20.12,0,0,0,20.13,20.12h141.52a20.12,20.12,0,0,0,20.12-20.12v-.77a20.12,20.12,0,0,0-20.12-20.12Z" transform="translate(1 -2)"/><rect class="cls-3" x="1439.24" y="949.65" width="160.53" height="26.66" rx="13.07"/><path d="M1585.7,952.15a12.59,12.59,0,0,1,12.58,12.57v.51a12.59,12.59,0,0,1-12.58,12.58H1451.32a12.59,12.59,0,0,1-12.58-12.58v-.51a12.59,12.59,0,0,1,12.58-12.57H1585.7m0-1H1451.32a13.57,13.57,0,0,0-13.58,13.57v.51a13.58,13.58,0,0,0,13.58,13.58H1585.7a13.58,13.58,0,0,0,13.58-13.58v-.51a13.57,13.57,0,0,0-13.58-13.57Z" transform="translate(1 -2)"/><rect class="cls-2" x="1449.4" y="908.72" width="139.27" height="33.66" rx="16.51"/><path d="M1571.17,911.22a16,16,0,0,1,16,16v.64a16,16,0,0,1-16,16H1464.91a16,16,0,0,1-16-16v-.64a16,16,0,0,1,16-16h106.26m0-1H1464.91a17,17,0,0,0-17,17v.64a17,17,0,0,0,17,17h106.26a17,17,0,0,0,17-17v-.64a17,17,0,0,0-17-17Z" transform="translate(1 -2)"/><rect class="cls-3" x="1457.36" y="914.09" width="123.65" height="22.38" rx="10.97"/><path d="M1569,916.59a10.48,10.48,0,0,1,10.47,10.47v.44A10.48,10.48,0,0,1,1569,938H1467.33a10.49,10.49,0,0,1-10.47-10.47v-.44a10.49,10.49,0,0,1,10.47-10.47H1569m0-1H1467.33a11.48,11.48,0,0,0-11.47,11.47v.44A11.48,11.48,0,0,0,1467.33,939H1569a11.47,11.47,0,0,0,11.47-11.47v-.44A11.47,11.47,0,0,0,1569,915.59Z" transform="translate(1 -2)"/><path class="cls-2" d="M1496,909.72V751.07a49.58,49.58,0,0,0,9,3.2,54.53,54.53,0,0,0,13.43,1.65,55.35,55.35,0,0,0,13-1.54,50.45,50.45,0,0,0,8.94-3.09V909.72Z" transform="translate(1 -2)"/><path d="M1496.46,751.85a50.35,50.35,0,0,0,8.39,2.91,56.13,56.13,0,0,0,26.69.1,50.53,50.53,0,0,0,8.32-2.8V909.22h-43.4V751.85m-1-1.57V910.22h45.4V750.51a49.58,49.58,0,0,1-9.56,3.38,55.11,55.11,0,0,1-26.2-.1,48.83,48.83,0,0,1-9.64-3.51Z" transform="translate(1 -2)"/><path class="cls-4" d="M1518.32,745a36.6,36.6,0,0,1-13-2.33,30.48,30.48,0,0,1-9.31-5.46v-1.61h44.4v1.88a30.88,30.88,0,0,1-9.23,5.28A37,37,0,0,1,1518.32,745Z" transform="translate(1 -2)"/><path d="M1539.86,736.13v1.15a30.42,30.42,0,0,1-8.91,5,37.18,37.18,0,0,1-25.5-.09,30.11,30.11,0,0,1-9-5.22v-.88h43.4m1-1h-45.4v2.33a31,31,0,0,0,9.64,5.71,38.23,38.23,0,0,0,26.2.09,31.32,31.32,0,0,0,9.56-5.52v-2.61Z" transform="translate(1 -2)"/><path class="cls-4" d="M1518.32,745a36.9,36.9,0,0,1-11.79-1.88h23.58A37,37,0,0,1,1518.32,745Z" transform="translate(1 -2)"/><path d="M1526.44,743.65a37.95,37.95,0,0,1-16.25,0h16.25m4.86-1h-26.2v.52a38.23,38.23,0,0,0,26.2.09v-.61Z" transform="translate(1 -2)"/><path class="cls-3" d="M1505.6,902.58V754.43a54.93,54.93,0,0,0,12.8,1.49,55.59,55.59,0,0,0,12.4-1.39V902.58Z" transform="translate(1 -2)"/><path d="M1506.1,755.06a56.34,56.34,0,0,0,24.2.09V902.08h-24.2v-147m-1-1.27V903.08h26.2V753.89a55.11,55.11,0,0,1-26.2-.1Z" transform="translate(1 -2)"/><path class="cls-2" d="M1518.4,754.92a53.46,53.46,0,0,1-13.18-1.62,48.11,48.11,0,0,1-9.54-3.47c-12.69-6.2-20.27-16.89-20.27-28.6a27.24,27.24,0,0,1,3-12.41,32.06,32.06,0,0,1,3.53-5.45,34.42,34.42,0,0,1,2.61-2.92,39.07,39.07,0,0,1,5.69-4.68,50.44,50.44,0,0,1,28.15-8.23c23.7,0,43,15.11,43,33.69,0,.16,0,.31,0,.47a26.81,26.81,0,0,1-1.92,9.52c-3.1,7.86-9.79,14.55-18.81,18.84a49.9,49.9,0,0,1-9.47,3.35A54.37,54.37,0,0,1,1518.4,754.92Zm-.08-58.24c-17.19,0-31.17,11.07-31.17,24.68,0,6.1,2.84,12,8,16.48a31.62,31.62,0,0,0,9.79,5.8,38.75,38.75,0,0,0,26.55.09,31.81,31.81,0,0,0,9.72-5.61c5.35-4.56,8.3-10.52,8.3-16.76C1549.49,707.75,1535.51,696.68,1518.32,696.68Z" transform="translate(1 -2)"/><path d="M1518.4,688c23.43,0,42.49,14.89,42.49,33.19,0,.15,0,.29,0,.49A26.16,26.16,0,0,1,1559,731c-3.06,7.75-9.66,14.35-18.57,18.58a48.6,48.6,0,0,1-9.37,3.31,54.14,54.14,0,0,1-25.72-.1,48.62,48.62,0,0,1-9.44-3.44c-12.52-6.12-20-16.64-20-28.15a26.63,26.63,0,0,1,3-12.18,31.46,31.46,0,0,1,3.47-5.37,35.13,35.13,0,0,1,2.58-2.88,39.2,39.2,0,0,1,5.61-4.62A50,50,0,0,1,1518.4,688m-.08,58.49a38.54,38.54,0,0,0,13.33-2.33,32.22,32.22,0,0,0,9.86-5.7c5.47-4.66,8.48-10.75,8.48-17.14,0-13.88-14.21-25.18-31.67-25.18s-31.67,11.3-31.67,25.18c0,6.25,2.9,12.24,8.15,16.85a31.7,31.7,0,0,0,9.94,5.89,38.19,38.19,0,0,0,13.58,2.43m.08-59.49a50.72,50.72,0,0,0-28.43,8.31,38.83,38.83,0,0,0-5.76,4.75,33.56,33.56,0,0,0-2.65,3,31.52,31.52,0,0,0-3.58,5.54,27.77,27.77,0,0,0-3.07,12.63c0,12.27,8.21,23,20.55,29a48.83,48.83,0,0,0,9.64,3.51,55.11,55.11,0,0,0,26.2.1,49.58,49.58,0,0,0,9.56-3.38c9-4.28,15.89-11,19.07-19.11a27.56,27.56,0,0,0,2-9.67c0-.17,0-.33,0-.5,0-18.88-19.47-34.19-43.49-34.19Zm-.08,58.49a37.51,37.51,0,0,1-13.22-2.36,31,31,0,0,1-9.64-5.71c-4.86-4.27-7.81-9.91-7.81-16.1,0-13.35,13.73-24.18,30.67-24.18S1549,708,1549,721.36c0,6.32-3.08,12.08-8.13,16.38a31.32,31.32,0,0,1-9.56,5.52,37.63,37.63,0,0,1-13,2.27Z" transform="translate(1 -2)"/><path class="cls-4" d="M1518.32,745a36.6,36.6,0,0,1-13-2.33,30.55,30.55,0,0,1-9.48-5.61c-4.92-4.33-7.64-9.92-7.64-15.73,0-13.06,13.54-23.68,30.17-23.68s30.17,10.62,30.17,23.68c0,5.94-2.83,11.63-8,16a30.64,30.64,0,0,1-9.41,5.43A37,37,0,0,1,1518.32,745Z" transform="translate(1 -2)"/><path d="M1518.32,698.18c16.36,0,29.67,10.4,29.67,23.18,0,5.8-2.76,11.34-7.78,15.62a30.07,30.07,0,0,1-9.26,5.34,37.18,37.18,0,0,1-25.5-.09,29.79,29.79,0,0,1-9.33-5.52c-4.81-4.23-7.47-9.68-7.47-15.35,0-12.78,13.31-23.18,29.67-23.18m0-1c-16.94,0-30.67,10.83-30.67,24.18,0,6.19,2.95,11.83,7.81,16.1a31,31,0,0,0,9.64,5.71,38.23,38.23,0,0,0,26.2.09,31.32,31.32,0,0,0,9.56-5.52c5.05-4.3,8.13-10.06,8.13-16.38,0-13.35-13.74-24.18-30.67-24.18Z" transform="translate(1 -2)"/><path class="cls-3" d="M1518.32,745a36.6,36.6,0,0,1-13-2.33,30.55,30.55,0,0,1-9.48-5.61c-4.92-4.33-7.64-9.92-7.64-15.73,0-13.06,13.54-23.68,30.17-23.68s30.17,10.62,30.17,23.68c0,5.94-2.83,11.63-8,16a30.64,30.64,0,0,1-9.41,5.43A37,37,0,0,1,1518.32,745Z" transform="translate(1 -2)"/><path d="M1518.32,698.18c16.36,0,29.67,10.4,29.67,23.18,0,5.8-2.76,11.34-7.78,15.62a30.07,30.07,0,0,1-9.26,5.34,37.18,37.18,0,0,1-25.5-.09,29.79,29.79,0,0,1-9.33-5.52c-4.81-4.23-7.47-9.68-7.47-15.35,0-12.78,13.31-23.18,29.67-23.18m0-1c-16.94,0-30.67,10.83-30.67,24.18,0,6.19,2.95,11.83,7.81,16.1a31,31,0,0,0,9.64,5.71,38.23,38.23,0,0,0,26.2.09,31.32,31.32,0,0,0,9.56-5.52c5.05-4.3,8.13-10.06,8.13-16.38,0-13.35-13.74-24.18-30.67-24.18Z" transform="translate(1 -2)"/><path class="cls-2" d="M1518.28,732.75c-8.22,0-14.91-5.17-14.91-11.52s6.69-11.52,14.91-11.52,14.91,5.17,14.91,11.52S1526.5,732.75,1518.28,732.75Z" transform="translate(1 -2)"/><path d="M1518.28,710.21c8,0,14.41,4.94,14.41,11s-6.46,11-14.41,11-14.41-4.94-14.41-11,6.46-11,14.41-11m0-1c-8.51,0-15.41,5.38-15.41,12s6.9,12,15.41,12,15.41-5.38,15.41-12-6.9-12-15.41-12Z" transform="translate(1 -2)"/><path class="cls-2" d="M1305,645.31a25.6,25.6,0,0,0,2.41-8.82l175.93,63.81c-.75.78-1.47,1.6-2.14,2.45a33,33,0,0,0-3.44,5.23Z" transform="translate(1 -2)"/><path d="M1307.81,637.18l174.62,63.33c-.58.62-1.13,1.27-1.65,1.93a32.39,32.39,0,0,0-3.28,4.92L1305.65,645a25.94,25.94,0,0,0,2.16-7.84m-.88-1.39a25.35,25.35,0,0,1-2.65,9.8l173.7,63a31.52,31.52,0,0,1,3.58-5.54,33.56,33.56,0,0,1,2.65-3l-177.28-64.31Z" transform="translate(1 -2)"/><path class="cls-2" d="M1768.16,839.81a46,46,0,0,1-9.11-.91c-16.39-3.36-27.84-15.23-27.84-28.88a25.46,25.46,0,0,1,4.75-14.63,32,32,0,0,1,7.82-7.76,42.38,42.38,0,0,1,24.38-7.41c20.37,0,36.95,13.37,36.95,29.8,0,13.76-11.56,25.66-28.12,28.94A46.21,46.21,0,0,1,1768.16,839.81Zm-8.26-6.43.72,2.32.78-2.47Zm8.53-44.21c-14,0-25.38,9.26-25.38,20.63s11.38,20.62,25.38,20.62,25.37-9.25,25.37-20.62S1782.42,789.17,1768.43,789.17Z" transform="translate(1 -2)"/><path d="M1768.16,780.72c20.1,0,36.45,13.14,36.45,29.3,0,13.51-11.4,25.21-27.72,28.45a45.67,45.67,0,0,1-17.74-.06c-16.16-3.31-27.44-15-27.44-28.39a24.94,24.94,0,0,1,4.66-14.34,31.76,31.76,0,0,1,7.7-7.64,41.89,41.89,0,0,1,24.09-7.32m.27,50.2c14.27,0,25.88-9.47,25.88-21.12s-11.61-21.13-25.88-21.13-25.88,9.48-25.88,21.13,11.61,21.12,25.88,21.12m-7.82,6.46,1-3.06.07-.22.45-1.44-1.5.15h-.13l-1.23.12.37,1.17.06.21.94,3.06m7.55-57.66a42.74,42.74,0,0,0-24.67,7.5,32.66,32.66,0,0,0-7.93,7.89,25.77,25.77,0,0,0-4.85,14.91c0,14.16,12,26.05,28.24,29.37a46.67,46.67,0,0,0,18.14.06c16.37-3.25,28.52-15.19,28.52-29.43,0-16.74-16.77-30.3-37.45-30.3Zm.27,50.2c-13.74,0-24.88-9-24.88-20.12s11.14-20.13,24.88-20.13,24.88,9,24.88,20.13-11.14,20.12-24.88,20.12Zm-7.8,4.1-.07-.2.14,0-.07.22Z" transform="translate(1 -2)"/><path class="cls-2" d="M1560.58,731.1a27.74,27.74,0,0,0,1.79-9l180.06,65.31a32.93,32.93,0,0,0-7.06,7.14Z" transform="translate(1 -2)"/><path d="M1562.84,722.76l178.57,64.77a33.24,33.24,0,0,0-6.23,6.38l-174-63.1a28,28,0,0,0,1.62-8m-.78-1.34-.18.31a27.56,27.56,0,0,1-2,9.67l175.63,63.71a32.66,32.66,0,0,1,7.93-7.89l-181.43-65.8Z" transform="translate(1 -2)"/><path class="cls-2" d="M1269.52,664.09a45.11,45.11,0,0,1-9.08-.91c-16.41-3.34-27.87-15.22-27.87-28.88,0-16.43,16.58-29.8,37-29.8s37,13.37,37,29.8c0,.49,0,1,0,1.47a24.69,24.69,0,0,1-2.6,9.6c-4.42,8.9-13.94,15.58-25.47,17.86A45.6,45.6,0,0,1,1269.52,664.09Zm.27-50.64c-14,0-25.38,9.26-25.38,20.63s11.38,20.63,25.38,20.63,25.38-9.26,25.38-20.63S1283.78,613.45,1269.79,613.45Z" transform="translate(1 -2)"/><path d="M1269.52,605c20.1,0,36.45,13.14,36.45,29.3,0,.45,0,.93,0,1.43a24.41,24.41,0,0,1-2.54,9.41c-4.36,8.77-13.75,15.35-25.12,17.6a44.76,44.76,0,0,1-8.75.85,45.58,45.58,0,0,1-9-.89c-16.17-3.3-27.47-15-27.47-28.4,0-16.16,16.35-29.3,36.45-29.3m.27,50.21c14.27,0,25.88-9.48,25.88-21.13S1284.06,613,1269.79,613s-25.88,9.48-25.88,21.13,11.61,21.13,25.88,21.13m-.27-51.21c-20.68,0-37.45,13.56-37.45,30.3,0,14.17,12,26.06,28.27,29.38a46.62,46.62,0,0,0,9.18.91,45.79,45.79,0,0,0,8.94-.87c11.78-2.33,21.37-9.17,25.82-18.13a25.35,25.35,0,0,0,2.65-9.8c0-.49,0-1,0-1.49,0-16.74-16.77-30.3-37.45-30.3Zm.27,50.21c-13.74,0-24.88-9-24.88-20.13S1256.05,614,1269.79,614s24.88,9,24.88,20.13-11.14,20.13-24.88,20.13Z" transform="translate(1 -2)"/><path class="cls-4" d="M1269.79,653.71c-13.44,0-24.38-8.81-24.38-19.63s10.94-19.63,24.38-19.63,24.38,8.81,24.38,19.63S1283.23,653.71,1269.79,653.71Z" transform="translate(1 -2)"/><path d="M1269.79,615c13.16,0,23.88,8.58,23.88,19.13s-10.72,19.13-23.88,19.13-23.88-8.58-23.88-19.13S1256.62,615,1269.79,615m0-1c-13.74,0-24.88,9-24.88,20.13s11.14,20.13,24.88,20.13,24.88-9,24.88-20.13S1283.53,614,1269.79,614Z" transform="translate(1 -2)"/><path class="cls-3" d="M1269.79,653.71c-13.44,0-24.38-8.81-24.38-19.63s10.94-19.63,24.38-19.63,24.38,8.81,24.38,19.63S1283.23,653.71,1269.79,653.71Z" transform="translate(1 -2)"/><path d="M1269.79,615c13.16,0,23.88,8.58,23.88,19.13s-10.72,19.13-23.88,19.13-23.88-8.58-23.88-19.13S1256.62,615,1269.79,615m0-1c-13.74,0-24.88,9-24.88,20.13s11.14,20.13,24.88,20.13,24.88-9,24.88-20.13S1283.53,614,1269.79,614Z" transform="translate(1 -2)"/><polygon class="cls-4" points="1761.7 831.8 1761.63 832.02 1761.56 831.82 1761.7 831.8"/><polygon points="1761.7 831.8 1761.56 831.82 1761.63 832.02 1761.7 831.8 1761.7 831.8"/><path class="cls-4" d="M1768.43,829.42c-13.45,0-24.38-8.8-24.38-19.62s10.93-19.63,24.38-19.63,24.37,8.81,24.37,19.63S1781.87,829.42,1768.43,829.42Z" transform="translate(1 -2)"/><path d="M1768.43,790.67c13.16,0,23.88,8.58,23.88,19.13s-10.72,19.12-23.88,19.12-23.88-8.58-23.88-19.12,10.71-19.13,23.88-19.13m0-1c-13.74,0-24.88,9-24.88,20.13s11.14,20.12,24.88,20.12,24.88-9,24.88-20.12-11.14-20.13-24.88-20.13Z" transform="translate(1 -2)"/><path class="cls-3" d="M1768.43,829.42c-13.45,0-24.38-8.8-24.38-19.62s10.93-19.63,24.38-19.63,24.37,8.81,24.37,19.63S1781.87,829.42,1768.43,829.42Z" transform="translate(1 -2)"/><path d="M1768.43,790.67c13.16,0,23.88,8.58,23.88,19.13s-10.72,19.12-23.88,19.12-23.88-8.58-23.88-19.12,10.71-19.13,23.88-19.13m0-1c-13.74,0-24.88,9-24.88,20.13s11.14,20.12,24.88,20.12,24.88-9,24.88-20.12-11.14-20.13-24.88-20.13Z" transform="translate(1 -2)"/><path class="cls-2" d="M1230.38,753.53l30.29-89.28a47.17,47.17,0,0,0,17.46,0l30.92,88.87-13.15,1.45-26.45-76-25.9,76.33Z" transform="translate(1 -2)"/><path d="M1261,664.82a47.26,47.26,0,0,0,8.51.77,46.61,46.61,0,0,0,8.28-.73l30.58,87.88-12.14,1.34-25.84-74.26-1-2.75-.93,2.76L1243.2,754.4l-12.15-1.3,30-88.28m-.67-1.14L1229.7,754l14.19,1.52,25.57-75.33,26.09,75,14.18-1.57-31.27-89.87a45.79,45.79,0,0,1-8.94.87,46.62,46.62,0,0,1-9.18-.91Z" transform="translate(1 -2)"/><path class="cls-2" d="M1729,936.91,1759.29,840a47.18,47.18,0,0,0,17.46,0l30.94,96.5-13.17,1.57-26.45-82.5-25.91,82.86Z" transform="translate(1 -2)"/><path d="M1759.63,840.54a47.63,47.63,0,0,0,16.78.05l30.62,95.5-12.16,1.46L1769,856.94l-1-3-.94,3-25.32,81-12.16-1.42,30-95.94m-.68-1.15-30.63,98,14.19,1.65,25.56-81.75,26.1,81.4,14.18-1.7-31.26-97.49a46.67,46.67,0,0,1-18.14-.06Z" transform="translate(1 -2)"/><polygon class="cls-4" points="1761.7 831.8 1761.63 832.02 1761.56 831.82 1761.7 831.8"/><polygon points="1761.7 831.8 1761.56 831.82 1761.63 832.02 1761.7 831.8 1761.7 831.8"/><path class="cls-2" d="M1768.34,821.68c-8.22,0-14.92-5.17-14.92-11.52s6.7-11.52,14.92-11.52,14.91,5.17,14.91,11.52S1776.56,821.68,1768.34,821.68Z" transform="translate(1 -2)"/><path d="M1768.34,799.14c7.94,0,14.41,4.94,14.41,11s-6.47,11-14.41,11-14.42-4.94-14.42-11,6.47-11,14.42-11m0-1c-8.51,0-15.42,5.38-15.42,12s6.91,12,15.42,12,15.41-5.38,15.41-12-6.9-12-15.41-12Z" transform="translate(1 -2)"/><path class="cls-2" d="M1269.7,646c-8.22,0-14.91-5.17-14.91-11.52s6.69-11.52,14.91-11.52,14.91,5.17,14.91,11.52S1277.92,646,1269.7,646Z" transform="translate(1 -2)"/><path d="M1269.7,623.42c8,0,14.41,4.94,14.41,11s-6.46,11-14.41,11-14.41-4.94-14.41-11,6.46-11,14.41-11m0-1c-8.51,0-15.41,5.38-15.41,12s6.9,12,15.41,12,15.41-5.38,15.41-12-6.9-12-15.41-12Z" transform="translate(1 -2)"/><path class="cls-5" d="M1870.83,930.89l-1.39,35.46c-.51,12.74-11.4,24.34-28.57,30.43l-47.8,16.94c-17.17,6.08-38,5.73-54.7-.92L1692,994.28c-16.67-6.65-26.63-18.6-26.13-31.35l1.4-35.46" transform="translate(1 -2)"/><line class="cls-5" x1="1668.41" y1="925.62" x2="1871.93" y2="928.86"/><path class="cls-1" d="M1854.94,936l-1.2,30.83c-.43,11.08-9.77,21.17-24.5,26.46l-41,14.73c-14.73,5.29-32.62,5-46.92-.8l-39.8-16.1c-14.3-5.78-22.84-16.17-22.41-27.25l1.2-30.84" transform="translate(1 -2)"/><line class="cls-6" x1="1681.45" y1="931.16" x2="1856.02" y2="933.98"/><path class="cls-5" d="M1734.37,978.51c0,2.74-8.25,5-18.43,5a58.14,58.14,0,0,1-10.72-.93,6.1,6.1,0,0,1-3.19.93c-4.78,0-8.65-5.9-8.65-13.17s3.87-13.17,8.65-13.17c4,0,7.43,4.22,8.38,9.91h.27c4.77,0,8.65,2.49,8.65,5.56a3.7,3.7,0,0,1-.16,1C1727.8,974.05,1734.37,976.07,1734.37,978.51Z" transform="translate(1 -2)"/><path class="cls-5" d="M1377,753.44l-1.4,35.46c-.5,12.74-11.39,24.34-28.56,30.43l-47.8,16.94c-17.18,6.08-38,5.73-54.7-.92l-46.4-18.52c-16.67-6.65-26.63-18.6-26.13-31.35l1.4-35.46" transform="translate(1 -2)"/><line class="cls-7" x1="1174.58" y1="748.17" x2="1378.11" y2="751.41"/><path class="cls-1" d="M1361.12,758.55l-1.2,30.83c-.43,11.08-9.77,21.17-24.51,26.46l-41,14.73c-14.74,5.29-32.62,5-46.92-.8l-39.8-16.1c-14.3-5.79-22.85-16.17-22.41-27.25l1.19-30.84" transform="translate(1 -2)"/><line class="cls-1" x1="1187.63" y1="753.71" x2="1362.2" y2="756.53"/><path class="cls-5" d="M1240.54,801.06c0,2.74-8.25,5-18.42,5a58.25,58.25,0,0,1-10.73-.93,6.06,6.06,0,0,1-3.18.93c-4.78,0-8.65-5.9-8.65-13.17s3.87-13.17,8.65-13.17c4,0,7.43,4.22,8.37,9.91h.27c4.78,0,8.65,2.49,8.65,5.56a3.37,3.37,0,0,1-.16,1C1234,796.6,1240.54,798.62,1240.54,801.06Z" transform="translate(1 -2)"/></svg>